<svg width="16" height="16" viewBox="0 0 16 16" fill="none" xmlns="http://www.w3.org/2000/svg">
<path d="M14.4338 10.25C14.5001 10.3651 14.5179 10.5019 14.4834 10.6302C14.4489 10.7584 14.3648 10.8678 14.2497 10.9341C14.1927 10.9669 14.1298 10.9882 14.0646 10.9967C13.9993 11.0052 13.9331 11.0008 13.8695 10.9837C13.7413 10.9492 13.6319 10.8651 13.5656 10.75L12.3781 8.675C11.6883 9.14165 10.9274 9.4933 10.125 9.71625L10.4919 11.9175C10.5027 11.9823 10.5007 12.0486 10.4858 12.1126C10.471 12.1766 10.4437 12.2371 10.4056 12.2905C10.3674 12.344 10.319 12.3894 10.2633 12.4242C10.2075 12.4589 10.1454 12.4824 10.0806 12.4931C10.054 12.4975 10.027 12.4998 10 12.5C9.88172 12.4998 9.76733 12.4577 9.67716 12.3812C9.58699 12.3046 9.52687 12.1986 9.50751 12.0819L9.14688 9.92062C8.38638 10.0265 7.61488 10.0265 6.85438 9.92062L6.49376 12.0819C6.47435 12.1988 6.41406 12.305 6.32363 12.3816C6.2332 12.4581 6.11851 12.5001 6.00001 12.5C5.97237 12.4999 5.94478 12.4976 5.91751 12.4931C5.85269 12.4824 5.79064 12.4589 5.73489 12.4242C5.67913 12.3894 5.63078 12.344 5.59259 12.2905C5.55439 12.2371 5.52711 12.1766 5.5123 12.1126C5.49748 12.0486 5.49543 11.9823 5.50626 11.9175L5.87501 9.71625C5.07226 9.49278 4.31112 9.14049 3.62126 8.67313L2.43751 10.75C2.40468 10.8072 2.3609 10.8574 2.30868 10.8977C2.25645 10.938 2.1968 10.9676 2.13314 10.9848C2.06947 11.002 2.00303 11.0066 1.93762 10.9981C1.8722 10.9897 1.80909 10.9685 1.75188 10.9356C1.69467 10.9028 1.64449 10.859 1.6042 10.8068C1.56392 10.7546 1.53431 10.6949 1.51707 10.6313C1.49983 10.5676 1.49531 10.5012 1.50375 10.4357C1.51218 10.3703 1.53343 10.3072 1.56626 10.25L2.81626 8.0625C2.37708 7.68329 1.97333 7.2649 1.61001 6.8125C1.53806 6.72352 1.49881 6.61255 1.49881 6.49813C1.49881 6.3837 1.53806 6.27273 1.61001 6.18375C2.78501 4.7325 4.84688 3 8.00001 3C11.1531 3 13.215 4.7325 14.3888 6.1875C14.4607 6.27648 14.5 6.38745 14.5 6.50187C14.5 6.6163 14.4607 6.72727 14.3888 6.81625C14.0254 7.26865 13.6217 7.68704 13.1825 8.06625L14.4338 10.25Z" fill="#013A6C"/>
</svg>
