<svg width="16" height="16" viewBox="0 0 16 16" fill="none" xmlns="http://www.w3.org/2000/svg">
<path opacity="0.2" d="M14 6.5C12.9494 7.80062 11.0231 9.5 8 9.5C4.97688 9.5 3.05062 7.80062 2 6.5C3.05062 5.19938 4.97688 3.5 8 3.5C11.0231 3.5 12.9494 5.19938 14 6.5Z" fill="#003A6C"/>
<path d="M14.25 10.9375C14.1929 10.97 14.1299 10.991 14.0647 10.9992C13.9995 11.0074 13.9333 11.0027 13.8699 10.9853C13.8065 10.9678 13.7471 10.9381 13.6953 10.8977C13.6434 10.8574 13.6 10.8071 13.5675 10.75L12.38 8.67497C11.6896 9.1418 10.9281 9.49346 10.125 9.71622L10.4919 11.9175C10.5027 11.9823 10.5006 12.0486 10.4858 12.1126C10.471 12.1766 10.4437 12.2371 10.4055 12.2905C10.3674 12.344 10.319 12.3894 10.2632 12.4241C10.2075 12.4589 10.1454 12.4823 10.0806 12.4931C10.054 12.4975 10.027 12.4998 10 12.5C9.88171 12.4998 9.76732 12.4577 9.67715 12.3811C9.58698 12.3046 9.52687 12.1985 9.5075 12.0818L9.14687 9.92059C8.38637 10.0265 7.61487 10.0265 6.85437 9.92059L6.49375 12.0818C6.47434 12.1987 6.41405 12.305 6.32362 12.3815C6.23319 12.4581 6.1185 12.5001 6 12.5C5.97236 12.4999 5.94477 12.4976 5.9175 12.4931C5.85269 12.4823 5.79063 12.4589 5.73488 12.4241C5.67913 12.3894 5.63077 12.344 5.59258 12.2905C5.55439 12.2371 5.5271 12.1766 5.51229 12.1126C5.49748 12.0486 5.49542 11.9823 5.50625 11.9175L5.875 9.71622C5.07226 9.49275 4.31111 9.14046 3.62125 8.6731L2.4375 10.75C2.40467 10.8072 2.36089 10.8574 2.30867 10.8976C2.25644 10.9379 2.1968 10.9675 2.13313 10.9848C2.06946 11.002 2.00303 11.0065 1.93761 10.9981C1.87219 10.9897 1.80908 10.9684 1.75187 10.9356C1.69467 10.9028 1.64449 10.859 1.6042 10.8068C1.56391 10.7545 1.5343 10.6949 1.51706 10.6312C1.49983 10.5676 1.4953 10.5011 1.50374 10.4357C1.51218 10.3703 1.53342 10.3072 1.56625 10.25L2.81625 8.06247C2.37719 7.68314 1.97345 7.26476 1.61 6.81247C1.56467 6.76186 1.53014 6.70255 1.5085 6.63815C1.48686 6.57375 1.47857 6.50562 1.48413 6.43791C1.4897 6.3702 1.50901 6.30434 1.54088 6.24434C1.57275 6.18434 1.61651 6.13146 1.66949 6.08894C1.72248 6.04642 1.78357 6.01514 1.84905 5.99701C1.91452 5.97889 1.983 5.97429 2.05031 5.98351C2.11762 5.99273 2.18235 6.01557 2.24053 6.05064C2.29872 6.08571 2.34915 6.13226 2.38875 6.18747C3.42625 7.47122 5.24125 8.99997 8 8.99997C10.7587 8.99997 12.5737 7.46935 13.6112 6.18747C13.6504 6.13113 13.7007 6.08346 13.7591 6.0474C13.8174 6.01135 13.8826 5.98769 13.9505 5.9779C14.0184 5.96811 14.0876 5.97239 14.1537 5.99049C14.2199 6.00858 14.2817 6.0401 14.3351 6.08308C14.3886 6.12606 14.4326 6.17958 14.4645 6.24032C14.4964 6.30105 14.5155 6.3677 14.5205 6.43612C14.5255 6.50453 14.5164 6.57325 14.4938 6.638C14.4711 6.70274 14.4354 6.76213 14.3887 6.81247C14.0253 7.26476 13.6216 7.68314 13.1825 8.06247L14.4325 10.25C14.4661 10.307 14.488 10.3701 14.4969 10.4357C14.5059 10.5012 14.5018 10.5679 14.4848 10.6318C14.4679 10.6958 14.4384 10.7557 14.3981 10.8082C14.3577 10.8607 14.3074 10.9046 14.25 10.9375Z" fill="#003A6C"/>
</svg>
